STARTFONT 2.1
FONT -Adobe-ITC Zapf Dingbats-Medium-R-Normal--17-120-100-100-P-124-ADOBE-FONTSPECIFIC
SIZE 12 100 100
FONTBOUNDINGBOX 16 17 0 -4

STARTPROPERTIES 26
_DEC_DEVICE_FONTNAMES "PS=ZapfDingbats"
FONTNAME_REGISTRY ""
FAMILY_NAME "ITC Zapf Dingbats"
FOUNDRY "Adobe"
WEIGHT_NAME "Medium"
SLANT "R"
SETWIDTH_NAME "Normal"
ADD_STYLE_NAME ""
PIXEL_SIZE 17
POINT_SIZE 120
RESOLUTION_X 100
RESOLUTION_Y 100
SPACING "P"
AVERAGE_WIDTH 124
CHARSET_REGISTRY "ADOBE"
CHARSET_ENCODING "FONTSPECIFIC"
CHARSET_COLLECTIONS "FONTSPECIFIC"
FULL_NAME "ITC Zapf Dingbats"
COPYRIGHT "Copyright (c) 1991 Adobe Systems, Inc."
CAP_HEIGHT 13
X_HEIGHT 9
WEIGHT 10
QUAD_WIDTH 9
DEFAULT_CHAR 0
FONT_DESCENT 4
FONT_ASCENT 13
ENDPROPERTIES

CHARS 188

STARTCHAR space
ENCODING 32
SWIDTH 278 0
DWIDTH 5 0
BBX 1 1 0 0
BITMAP
00
ENDCHAR

STARTCHAR a1
ENCODING 33
SWIDTH 974 0
DWIDTH 16 0
BBX 14 10 0 1
BITMAP
3000
4800
4800
3000
0C00
06F0
67FC
9F00
9180
60C0
ENDCHAR

STARTCHAR a2
ENCODING 34
SWIDTH 961 0
DWIDTH 16 0
BBX 14 10 0 1
BITMAP
6000
9000
903C
78F0
07C0
07C0
78F0
903C
9000
6000
ENDCHAR

STARTCHAR a202
ENCODING 35
SWIDTH 974 0
DWIDTH 16 0
BBX 14 10 0 1
BITMAP
6000
9180
9300
7FFC
07F8
0400
7800
9000
9000
6000
ENDCHAR

STARTCHAR a3
ENCODING 36
SWIDTH 980 0
DWIDTH 16 0
BBX 14 11 0 0
BITMAP
7000
A83C
D844
A788
7930
06C0
7920
A798
D844
A838
7000
ENDCHAR

STARTCHAR a4
ENCODING 37
SWIDTH 719 0
DWIDTH 12 0
BBX 11 7 0 2
BITMAP
7FC0
EAE0
EEE0
1B00
3180
3B80
3F80
ENDCHAR

STARTCHAR a5
ENCODING 38
SWIDTH 789 0
DWIDTH 13 0
BBX 12 12 0 0
BITMAP
0F00
30C0
4320
47A0
8D10
8C10
9810
9C10
5C20
5020
10C0
0F00
ENDCHAR

STARTCHAR a119
ENCODING 39
SWIDTH 790 0
DWIDTH 13 0
BBX 12 12 0 0
BITMAP
0F00
30C0
4620
4620
8610
8910
9690
B9D0
50A0
4020
30C0
0F00
ENDCHAR

STARTCHAR a118
ENCODING 40
SWIDTH 791 0
DWIDTH 13 0
BBX 12 13 0 -1
BITMAP
0C00
0700
0600
0780
8300
C3C0
FFF0
C3C0
8300
0780
0600
0700
0C00
ENDCHAR

STARTCHAR a117
ENCODING 41
SWIDTH 690 0
DWIDTH 12 0
BBX 11 8 0 2
BITMAP
FFE0
C060
AEA0
9F20
9F20
AEA0
C060
FFE0
ENDCHAR

STARTCHAR a11
ENCODING 42
SWIDTH 960 0
DWIDTH 16 0
BBX 14 8 0 2
BITMAP
07C0
4FF0
BFFC
BFFC
BFC0
BFC0
BF80
4F00
ENDCHAR

STARTCHAR a12
ENCODING 43
SWIDTH 939 0
DWIDTH 16 0
BBX 14 8 0 2
BITMAP
03F8
FC84
D0F8
DAA0
D760
D8B0
F550
03E0
ENDCHAR

STARTCHAR a13
ENCODING 44
SWIDTH 549 0
DWIDTH 9 0
BBX 9 12 0 0
BITMAP
2100
5280
5280
2D00
2D00
3F00
5100
5D00
A900
D900
4200
3C00
ENDCHAR

STARTCHAR a14
ENCODING 45
SWIDTH 855 0
DWIDTH 14 0
BBX 12 10 1 1
BITMAP
0200
0700
1E00
2E00
49F0
9850
BC50
D050
FF90
C060
ENDCHAR

STARTCHAR a15
ENCODING 46
SWIDTH 911 0
DWIDTH 15 0
BBX 13 10 0 1
BITMAP
3000
4C00
B200
AD80
9260
69B0
3650
0948
0698
01F8
ENDCHAR

STARTCHAR a16
ENCODING 47
SWIDTH 933 0
DWIDTH 16 0
BBX 14 7 0 2
BITMAP
3FE0
4830
B7E8
B424
B7E8
4830
3FE0
ENDCHAR

STARTCHAR a105
ENCODING 48
SWIDTH 911 0
DWIDTH 15 0
BBX 13 10 0 1
BITMAP
01F8
0698
0948
3650
69B0
9260
AD80
B200
4C00
3000
ENDCHAR

STARTCHAR a17
ENCODING 49
SWIDTH 945 0
DWIDTH 16 0
BBX 14 7 0 2
BITMAP
01C0
7A30
8498
81FC
8498
7A30
01C0
ENDCHAR

STARTCHAR a18
ENCODING 50
SWIDTH 974 0
DWIDTH 16 0
BBX 14 9 1 1
BITMAP
0180
03C0
73E0
FEF0
FE7C
FEF0
73E0
03C0
0180
ENDCHAR

STARTCHAR a19
ENCODING 51
SWIDTH 755 0
DWIDTH 13 0
BBX 11 12 0 0
BITMAP
00E0
01C0
0180
0380
0700
0600
6E00
EC00
F800
F800
7000
7000
ENDCHAR

STARTCHAR a20
ENCODING 52
SWIDTH 846 0
DWIDTH 14 0
BBX 12 12 0 0
BITMAP
0010
0030
0070
60E0
E1C0
E380
F700
FE00
7C00
7800
7000
2000
ENDCHAR

STARTCHAR a21
ENCODING 53
SWIDTH 762 0
DWIDTH 13 0
BBX 10 11 1 0
BITMAP
8040
C0C0
6180
3300
1E00
0C00
1E00
3300
6180
C0C0
8040
ENDCHAR

STARTCHAR a22
ENCODING 54
SWIDTH 761 0
DWIDTH 13 0
BBX 12 12 0 0
BITMAP
2040
70E0
F9F0
7FE0
3FC0
1F80
1F80
3FC0
7FE0
F9F0
70E0
2040
ENDCHAR

STARTCHAR a23
ENCODING 55
SWIDTH 571 0
DWIDTH 9 0
BBX 9 12 0 -1
BITMAP
1180
3300
1A00
1E00
0C00
1C00
1E00
3600
6300
6200
C000
C000
ENDCHAR

STARTCHAR a24
ENCODING 56
SWIDTH 677 0
DWIDTH 11 0
BBX 10 12 0 0
BITMAP
0080
61C0
6380
7700
7E00
3C00
3C00
7E00
FF00
EE00
E400
4000
ENDCHAR

STARTCHAR a25
ENCODING 57
SWIDTH 763 0
DWIDTH 13 0
BBX 12 12 0 0
BITMAP
0F00
0D00
0D00
0D00
FDF0
87F0
FE10
FBF0
0B00
0B00
0B00
0F00
ENDCHAR

STARTCHAR a26
ENCODING 58
SWIDTH 760 0
DWIDTH 13 0
BBX 12 12 0 0
BITMAP
0F00
0F00
0F00
0F00
FFF0
FFF0
FFF0
FFF0
0F00
0F00
0F00
0F00
ENDCHAR

STARTCHAR a27
ENCODING 59
SWIDTH 759 0
DWIDTH 13 0
BBX 11 11 0 0
BITMAP
0E00
0E00
0E00
0E00
FFE0
FBE0
FFE0
0E00
0E00
0E00
0E00
ENDCHAR

STARTCHAR a28
ENCODING 60
SWIDTH 754 0
DWIDTH 13 0
BBX 12 12 0 0
BITMAP
0F00
0F00
0F00
0F00
F0F0
F0F0
F0F0
F0F0
0F00
0F00
0F00
0F00
ENDCHAR

STARTCHAR a6
ENCODING 61
SWIDTH 494 0
DWIDTH 8 0
BBX 8 12 0 0
BITMAP
18
18
18
FF
FF
18
18
18
18
18
18
18
ENDCHAR

STARTCHAR a7
ENCODING 62
SWIDTH 552 0
DWIDTH 9 0
BBX 9 13 0 -1
BITMAP
3C00
2600
2600
E700
8180
E780
6600
2600
2600
2600
2600
3E00
1E00
ENDCHAR

STARTCHAR a8
ENCODING 63
SWIDTH 537 0
DWIDTH 9 0
BBX 8 12 0 0
BITMAP
3C
2C
2C
E3
9F
EF
2C
2C
2C
2C
2C
3C
ENDCHAR

STARTCHAR a9
ENCODING 64
SWIDTH 577 0
DWIDTH 9 0
BBX 9 9 0 1
BITMAP
3E00
1C00
8880
C980
FF80
C980
8880
1C00
3E00
ENDCHAR

STARTCHAR a10
ENCODING 65
SWIDTH 692 0
DWIDTH 11 0
BBX 11 12 0 0
BITMAP
0400
0400
0A00
FFE0
5140
2080
2080
5140
FFE0
0A00
0400
0400
ENDCHAR

STARTCHAR a29
ENCODING 66
SWIDTH 786 0
DWIDTH 13 0
BBX 13 13 0 -1
BITMAP
0200
0700
0700
0700
0200
7270
FFF8
7270
0200
0700
0700
0700
0200
ENDCHAR

STARTCHAR a30
ENCODING 67
SWIDTH 788 0
DWIDTH 13 0
BBX 13 13 0 -1
BITMAP
0200
0700
0700
0200
0200
6230
FFF8
6230
0200
0200
0700
0700
0200
ENDCHAR

STARTCHAR a31
ENCODING 68
SWIDTH 788 0
DWIDTH 13 0
BBX 13 13 0 -1
BITMAP
0700
0F80
0F80
0700
6230
F278
FFF8
F278
6230
0700
0F80
0F80
0700
ENDCHAR

STARTCHAR a32
ENCODING 69
SWIDTH 790 0
DWIDTH 13 0
BBX 13 13 0 -1
BITMAP
0200
0700
0F80
0700
2220
7270
FFF8
7270
2220
0700
0F80
0700
0200
ENDCHAR

STARTCHAR a33
ENCODING 70
SWIDTH 793 0
DWIDTH 13 0
BBX 13 13 0 -1
BITMAP
0200
0200
0700
0700
0F80
3FE0
FFF8
3FE0
0F80
0700
0700
0200
0200
ENDCHAR

STARTCHAR a34
ENCODING 71
SWIDTH 794 0
DWIDTH 13 0
BBX 13 13 0 -1
BITMAP
0200
0200
0500
0500
0D80
38E0
C018
38E0
0D80
0500
0500
0200
0200
ENDCHAR

STARTCHAR a35
ENCODING 72
SWIDTH 816 0
DWIDTH 14 0
BBX 13 12 0 0
BITMAP
0200
0200
0700
0700
FFF8
7FF0
3FE0
0F80
1FC0
1DC0
38E0
2020
ENDCHAR

STARTCHAR a36
ENCODING 73
SWIDTH 823 0
DWIDTH 14 0
BBX 13 12 0 0
BITMAP
0200
0200
0500
0500
FDF8
4010
3060
0880
1240
1540
28A0
3060
ENDCHAR

STARTCHAR a37
ENCODING 74
SWIDTH 789 0
DWIDTH 13 0
BBX 13 13 0 -1
BITMAP
0F80
3DE0
7DF0
78F0
F8F8
8008
E038
F078
F278
6730
6FB0
3FE0
0F80
ENDCHAR

STARTCHAR a38
ENCODING 75
SWIDTH 841 0
DWIDTH 14 0
BBX 13 12 0 0
BITMAP
0200
0200
0700
0700
FDF8
78F0
38E0
0D80
1FC0
1DC0
38E0
2020
ENDCHAR

STARTCHAR a39
ENCODING 76
SWIDTH 823 0
DWIDTH 14 0
BBX 13 12 0 0
BITMAP
0200
0200
0500
0500
FDF8
4710
3760
0F80
1240
1540
28A0
3060
ENDCHAR

STARTCHAR a40
ENCODING 77
SWIDTH 833 0
DWIDTH 14 0
BBX 13 12 0 0
BITMAP
0200
0200
0500
0500
FAF8
5FD0
3760
0F80
1AC0
1540
28A0
3060
ENDCHAR

STARTCHAR a41
ENCODING 78
SWIDTH 816 0
DWIDTH 14 0
BBX 13 12 0 0
BITMAP
0200
0200
0500
0700
FAF8
5FD0
37E0
0F80
1FC0
1540
28A0
3060
ENDCHAR

STARTCHAR a42
ENCODING 79
SWIDTH 831 0
DWIDTH 14 0
BBX 13 12 0 0
BITMAP
0200
0200
0500
0500
FDF8
4F50
37E0
0E80
1B40
15C0
28A0
3060
ENDCHAR

STARTCHAR a43
ENCODING 80
SWIDTH 923 0
DWIDTH 15 0
BBX 14 13 0 0
BITMAP
0200
0300
0580
05C0
FDFC
4018
3070
08E0
1260
1760
2FB0
3C70
1830
ENDCHAR

STARTCHAR a44
ENCODING 81
SWIDTH 744 0
DWIDTH 13 0
BBX 12 12 0 0
BITMAP
0600
0600
4620
F6F0
7FE0
1F80
1F80
7FE0
F6F0
4620
0600
0600
ENDCHAR

STARTCHAR a45
ENCODING 82
SWIDTH 723 0
DWIDTH 12 0
BBX 12 12 0 0
BITMAP
0600
0600
4620
F6F0
79E0
1080
1080
79E0
F6F0
4620
0600
0600
ENDCHAR

STARTCHAR a46
ENCODING 83
SWIDTH 749 0
DWIDTH 12 0
BBX 11 11 0 0
BITMAP
0400
4440
2480
1500
0E00
FFE0
0E00
1500
2480
4440
0400
ENDCHAR

STARTCHAR a47
ENCODING 84
SWIDTH 790 0
DWIDTH 13 0
BBX 11 11 1 0
BITMAP
0400
4440
3580
3F80
1F00
FFE0
1F00
3F80
3580
4440
0400
ENDCHAR

STARTCHAR a48
ENCODING 85
SWIDTH 792 0
DWIDTH 13 0
BBX 11 11 1 0
BITMAP
0400
4440
3580
2E80
1500
FFE0
1500
2E80
3580
4440
0400
ENDCHAR

STARTCHAR a49
ENCODING 86
SWIDTH 695 0
DWIDTH 11 0
BBX 11 11 0 0
BITMAP
0400
0400
8E20
7FC0
3F80
1F00
3F80
7FC0
8E20
0400
0400
ENDCHAR

STARTCHAR a50
ENCODING 87
SWIDTH 776 0
DWIDTH 13 0
BBX 11 12 1 0
BITMAP
1100
1100
1B00
CE60
7FC0
3F80
3F80
7FC0
CE60
1B00
1100
1100
ENDCHAR

STARTCHAR a51
ENCODING 88
SWIDTH 768 0
DWIDTH 13 0
BBX 11 12 1 0
BITMAP
1100
1100
1B00
DF60
7FC0
3F80
3F80
7FC0
DF60
1B00
1100
1100
ENDCHAR

STARTCHAR a52
ENCODING 89
SWIDTH 792 0
DWIDTH 13 0
BBX 11 11 1 0
BITMAP
0400
2480
9F20
5F40
3F80
FFE0
3F80
5F40
9F20
2480
0400
ENDCHAR

STARTCHAR a53
ENCODING 90
SWIDTH 759 0
DWIDTH 13 0
BBX 11 11 1 0
BITMAP
1500
5540
3F80
DF60
3F80
FFE0
3F80
DF60
3F80
5540
1500
ENDCHAR

STARTCHAR a54
ENCODING 91
SWIDTH 707 0
DWIDTH 12 0
BBX 11 12 0 0
BITMAP
0400
0E00
4E40
E4E0
E4E0
0E00
0E00
E4E0
E4E0
4E40
0E00
0400
ENDCHAR

STARTCHAR a55
ENCODING 92
SWIDTH 708 0
DWIDTH 12 0
BBX 11 12 0 0
BITMAP
0400
0E00
4E40
E4E0
EEE0
1100
1100
EEE0
E4E0
4E40
0E00
0400
ENDCHAR

STARTCHAR a56
ENCODING 93
SWIDTH 682 0
DWIDTH 11 0
BBX 11 12 0 0
BITMAP
0400
0E00
4E40
E4E0
F5E0
1F40
5F00
F5E0
E4E0
4E40
0E00
0400
ENDCHAR

STARTCHAR a57
ENCODING 94
SWIDTH 701 0
DWIDTH 12 0
BBX 12 12 0 0
BITMAP
0600
0900
6960
F9F0
7FE0
3FC0
7FE0
8F10
9F90
6F60
0F00
0600
ENDCHAR

STARTCHAR a58
ENCODING 95
SWIDTH 826 0
DWIDTH 14 0
BBX 13 12 0 0
BITMAP
0700
0F80
0F80
6FB0
FDF8
F8F8
78F0
1DC0
3FE0
3FE0
3DE0
18C0
ENDCHAR

STARTCHAR a59
ENCODING 96
SWIDTH 815 0
DWIDTH 14 0
BBX 13 12 0 0
BITMAP
0700
0880
0A80
7AF0
AAA8
9748
6FB0
1740
2AA0
3260
2520
18C0
ENDCHAR

STARTCHAR a60
ENCODING 97
SWIDTH 789 0
DWIDTH 13 0
BBX 12 12 0 0
BITMAP
0600
39C0
6F60
5FA0
7FE0
B9D0
B9D0
7FE0
5FA0
6F60
39C0
0600
ENDCHAR

STARTCHAR a61
ENCODING 98
SWIDTH 789 0
DWIDTH 13 0
BBX 12 12 0 0
BITMAP
0600
3BC0
6B60
56A0
6960
F090
90F0
6960
56A0
6D60
3DC0
0600
ENDCHAR

STARTCHAR a62
ENCODING 99
SWIDTH 707 0
DWIDTH 12 0
BBX 11 12 0 0
BITMAP
0400
0A00
0A00
6EC0
BFA0
77C0
1F00
7DC0
BFA0
6AC0
0A00
0400
ENDCHAR

STARTCHAR a63
ENCODING 100
SWIDTH 687 0
DWIDTH 12 0
BBX 11 12 0 0
BITMAP
0400
1500
4E20
2440
F5C0
0E20
8E00
75E0
4480
8E40
1500
0400
ENDCHAR

STARTCHAR a64
ENCODING 101
SWIDTH 696 0
DWIDTH 12 0
BBX 13 12 0 0
BITMAP
0200
0A80
1740
5250
3AE0
2738
E720
3AE0
5250
1740
0A80
0200
ENDCHAR

STARTCHAR a65
ENCODING 102
SWIDTH 689 0
DWIDTH 11 0
BBX 11 12 0 0
BITMAP
0400
1F00
4E40
64E0
F5C0
0E60
CE00
75E0
E4C0
4E40
1F00
0400
ENDCHAR

STARTCHAR a66
ENCODING 103
SWIDTH 786 0
DWIDTH 13 0
BBX 12 12 0 0
BITMAP
0600
4620
2640
1480
0900
E6F0
F670
0900
1280
2640
4620
0600
ENDCHAR

STARTCHAR a67
ENCODING 104
SWIDTH 787 0
DWIDTH 13 0
BBX 12 12 0 0
BITMAP
0600
4F20
2640
1280
4620
FF70
EFF0
4620
1480
2640
4F20
0600
ENDCHAR

STARTCHAR a68
ENCODING 105
SWIDTH 713 0
DWIDTH 12 0
BBX 11 12 0 0
BITMAP
0400
0E00
4E40
E4E0
F4E0
0D40
5600
E5E0
E4E0
4E40
0E00
0400
ENDCHAR

STARTCHAR a69
ENCODING 106
SWIDTH 791 0
DWIDTH 13 0
BBX 11 11 1 0
BITMAP
0400
4440
2480
1100
0400
EEE0
0400
1100
2480
4440
0400
ENDCHAR

STARTCHAR a70
ENCODING 107
SWIDTH 785 0
DWIDTH 13 0
BBX 12 12 0 0
BITMAP
0600
6660
76E0
3FC0
1F80
FFF0
FFF0
1F80
3FC0
76E0
6660
0600
ENDCHAR

STARTCHAR a71
ENCODING 108
SWIDTH 791 0
DWIDTH 13 0
BBX 12 12 0 0
BITMAP
0F00
3FC0
7FE0
7FE0
FFF0
FFF0
FFF0
FFF0
7FE0
7FE0
3FC0
0F00
ENDCHAR

STARTCHAR a72
ENCODING 109
SWIDTH 873 0
DWIDTH 14 0
BBX 13 12 0 0
BITMAP
0F80
30E0
4030
4030
8018
8018
8018
8018
4030
4030
30E0
0F80
ENDCHAR

STARTCHAR a73
ENCODING 110
SWIDTH 761 0
DWIDTH 13 0
BBX 12 12 0 0
BITMAP
FFF0
FFF0
FFF0
FFF0
FFF0
FFF0
FFF0
FFF0
FFF0
FFF0
FFF0
FFF0
ENDCHAR

STARTCHAR a74
ENCODING 111
SWIDTH 762 0
DWIDTH 13 0
BBX 12 12 0 0
BITMAP
FFC0
8040
8070
8070
8070
8070
8070
8070
8070
FFF0
3FF0
3FF0
ENDCHAR

STARTCHAR a203
ENCODING 112
SWIDTH 762 0
DWIDTH 13 0
BBX 12 12 0 0
BITMAP
3FF0
3FF0
FFF0
8070
8070
8070
8070
8070
8070
8070
8040
FFC0
ENDCHAR

STARTCHAR a75
ENCODING 113
SWIDTH 759 0
DWIDTH 13 0
BBX 12 12 0 0
BITMAP
FFC0
8020
8030
8030
8030
8030
8030
8030
8030
8030
7FF0
3FF0
ENDCHAR

STARTCHAR a204
ENCODING 114
SWIDTH 759 0
DWIDTH 13 0
BBX 12 12 0 0
BITMAP
3FF0
7FF0
8030
8030
8030
8030
8030
8030
8030
8030
8020
FFC0
ENDCHAR

STARTCHAR a76
ENCODING 115
SWIDTH 892 0
DWIDTH 14 0
BBX 13 12 0 0
BITMAP
0200
0700
0700
0F80
0F80
1FC0
1FC0
3FE0
3FE0
7FF0
7FF0
FFF8
ENDCHAR

STARTCHAR a77
ENCODING 116
SWIDTH 892 0
DWIDTH 14 0
BBX 13 12 0 0
BITMAP
FFF8
7FF0
7FF0
3FE0
3FE0
1FC0
1FC0
0F80
0F80
0700
0700
0200
ENDCHAR

STARTCHAR a78
ENCODING 117
SWIDTH 788 0
DWIDTH 13 0
BBX 11 12 0 0
BITMAP
0400
0E00
1F00
3F80
7FC0
FFE0
FFE0
7FC0
3F80
1F00
0E00
0400
ENDCHAR

STARTCHAR a79
ENCODING 118
SWIDTH 784 0
DWIDTH 13 0
BBX 11 12 0 0
BITMAP
0400
0E00
1F00
0E00
64C0
F1E0
F1E0
64C0
0E00
1F00
0E00
0400
ENDCHAR

STARTCHAR a81
ENCODING 119
SWIDTH 438 0
DWIDTH 7 0
BBX 6 12 0 0
BITMAP
C0
F0
F8
F8
FC
FC
FC
FC
F8
F8
F0
C0
ENDCHAR

STARTCHAR a82
ENCODING 120
SWIDTH 138 0
DWIDTH 2 0
BBX 1 12 1 0
BITMAP
80
80
80
80
80
80
80
80
80
80
80
80
ENDCHAR

STARTCHAR a83
ENCODING 121
SWIDTH 277 0
DWIDTH 5 0
BBX 3 12 1 0
BITMAP
E0
E0
E0
E0
E0
E0
E0
E0
E0
E0
E0
E0
ENDCHAR

STARTCHAR a84
ENCODING 122
SWIDTH 415 0
DWIDTH 7 0
BBX 6 12 0 0
BITMAP
FC
FC
FC
FC
FC
FC
FC
FC
FC
FC
FC
FC
ENDCHAR

STARTCHAR a97
ENCODING 123
SWIDTH 392 0
DWIDTH 7 0
BBX 5 8 1 4
BITMAP
18
60
40
F0
F8
F8
F8
70
ENDCHAR

STARTCHAR a98
ENCODING 124
SWIDTH 392 0
DWIDTH 7 0
BBX 5 8 1 4
BITMAP
70
F8
F8
F8
78
10
30
C0
ENDCHAR

STARTCHAR a99
ENCODING 125
SWIDTH 668 0
DWIDTH 11 0
BBX 10 8 0 4
BITMAP
18C0
6300
4200
F780
FFC0
FFC0
FFC0
7380
ENDCHAR

STARTCHAR a100
ENCODING 126
SWIDTH 668 0
DWIDTH 11 0
BBX 10 8 0 4
BITMAP
7380
FFC0
FFC0
FFC0
7BC0
1080
3180
C600
ENDCHAR

STARTCHAR a101
ENCODING 161
SWIDTH 732 0
DWIDTH 12 0
BBX 11 17 0 -4
BITMAP
0100
0100
3FE0
7900
F900
F900
F900
F900
7900
3F00
0100
0100
3100
7900
7100
2200
1C00
ENDCHAR

STARTCHAR a102
ENCODING 162
SWIDTH 544 0
DWIDTH 9 0
BBX 7 12 1 0
BITMAP
7C
FE
FE
FE
7C
10
10
00
38
7C
7C
38
ENDCHAR

STARTCHAR a103
ENCODING 163
SWIDTH 544 0
DWIDTH 9 0
BBX 7 12 1 0
BITMAP
6C
FE
FE
FE
7C
38
10
00
38
7C
7C
38
ENDCHAR

STARTCHAR a104
ENCODING 164
SWIDTH 910 0
DWIDTH 15 0
BBX 13 10 0 1
BITMAP
38E0
7DF0
FFF8
FFF8
FFF8
FFF8
7FF0
1FC0
0700
0200
ENDCHAR

STARTCHAR a106
ENCODING 165
SWIDTH 667 0
DWIDTH 11 0
BBX 9 11 1 0
BITMAP
7000
F800
F800
FC00
7E00
3F80
7E00
FC00
F800
F800
7000
ENDCHAR

STARTCHAR a107
ENCODING 166
SWIDTH 760 0
DWIDTH 13 0
BBX 11 12 0 0
BITMAP
7660
8960
8520
83C0
1A00
3FC0
3FC0
3FC0
3F80
1E00
0C80
0700
ENDCHAR

STARTCHAR a108
ENCODING 167
SWIDTH 760 0
DWIDTH 13 0
BBX 12 9 0 1
BITMAP
2000
4300
2780
3780
5FD0
A7D0
CFE0
6F80
0600
ENDCHAR

STARTCHAR a112
ENCODING 168
SWIDTH 776 0
DWIDTH 13 0
BBX 11 12 0 0
BITMAP
0E00
1F00
1F00
1F00
7FC0
FFE0
FFE0
FFE0
75C0
0400
0E00
3F80
ENDCHAR

STARTCHAR a111
ENCODING 169
SWIDTH 595 0
DWIDTH 10 0
BBX 9 11 0 1
BITMAP
0800
1C00
1C00
3E00
7F00
FF80
7F00
3E00
1C00
1C00
0800
ENDCHAR

STARTCHAR a110
ENCODING 170
SWIDTH 694 0
DWIDTH 11 0
BBX 9 12 1 0
BITMAP
6300
F780
FF80
FF80
FF80
7F00
7F00
3E00
1C00
1C00
0800
0800
ENDCHAR

STARTCHAR a109
ENCODING 171
SWIDTH 626 0
DWIDTH 10 0
BBX 9 12 0 0
BITMAP
0800
0800
1C00
1C00
3E00
7F00
FF80
FF80
6B00
0800
1C00
7F00
ENDCHAR

STARTCHAR a120
ENCODING 172
SWIDTH 788 0
DWIDTH 13 0
BBX 12 12 0 0
BITMAP
0F00
30C0
4220
5E20
8610
8610
8610
8610
4620
4F20
30C0
0F00
ENDCHAR

STARTCHAR a121
ENCODING 173
SWIDTH 788 0
DWIDTH 13 0
BBX 13 12 0 0
BITMAP
0F80
3060
4710
4990
8988
8108
8208
8488
4F90
4F90
3060
0F80
ENDCHAR

STARTCHAR a122
ENCODING 174
SWIDTH 788 0
DWIDTH 13 0
BBX 12 12 0 0
BITMAP
0F00
30C0
4620
4920
9990
8310
8190
9990
4920
4620
30C0
0F00
ENDCHAR

STARTCHAR a123
ENCODING 175
SWIDTH 788 0
DWIDTH 13 0
BBX 12 12 0 0
BITMAP
0F00
30C0
4320
4720
8B10
8B10
9310
BF90
4320
47A0
30C0
0F00
ENDCHAR

STARTCHAR a124
ENCODING 176
SWIDTH 788 0
DWIDTH 13 0
BBX 12 12 0 0
BITMAP
0F00
30C0
4FA0
4F20
8810
8F10
8190
9990
5920
4E20
30C0
0F00
ENDCHAR

STARTCHAR a125
ENCODING 177
SWIDTH 788 0
DWIDTH 13 0
BBX 12 12 0 0
BITMAP
0F00
30C0
4720
49A0
9810
9F10
9990
9890
59A0
4F20
30C0
0F00
ENDCHAR

STARTCHAR a126
ENCODING 178
SWIDTH 788 0
DWIDTH 13 0
BBX 12 12 0 0
BITMAP
0F00
30C0
4FA0
4FA0
8910
8210
8210
8610
4620
4620
30C0
0F00
ENDCHAR

STARTCHAR a127
ENCODING 179
SWIDTH 788 0
DWIDTH 13 0
BBX 12 12 0 0
BITMAP
0F00
30C0
4F20
58A0
9890
8F10
9F90
9190
51A0
4F20
30C0
0F00
ENDCHAR

STARTCHAR a128
ENCODING 180
SWIDTH 788 0
DWIDTH 13 0
BBX 12 12 0 0
BITMAP
0F00
30C0
4F20
59A0
9190
9990
8F90
8190
5920
4E20
30C0
0F00
ENDCHAR

STARTCHAR a129
ENCODING 181
SWIDTH 788 0
DWIDTH 13 0
BBX 12 12 0 0
BITMAP
0F00
30C0
5320
74A0
9490
9490
9490
9490
54A0
7B20
30C0
0F00
ENDCHAR

STARTCHAR a130
ENCODING 182
SWIDTH 788 0
DWIDTH 13 0
BBX 12 12 0 0
BITMAP
0F00
3FC0
79E0
61E0
F9F0
F9F0
F9F0
F9F0
79E0
70E0
3FC0
0F00
ENDCHAR

STARTCHAR a131
ENCODING 183
SWIDTH 788 0
DWIDTH 13 0
BBX 12 12 0 0
BITMAP
0F00
3FC0
70E0
6C60
EE70
FCF0
FBF0
F770
6060
6060
3FC0
0F00
ENDCHAR

STARTCHAR a132
ENCODING 184
SWIDTH 788 0
DWIDTH 13 0
BBX 12 12 0 0
BITMAP
0F00
3FC0
70E0
6660
E670
FCF0
FE70
E670
6660
70E0
3FC0
0F00
ENDCHAR

STARTCHAR a133
ENCODING 185
SWIDTH 788 0
DWIDTH 13 0
BBX 12 12 0 0
BITMAP
0F00
3FC0
7CE0
78E0
F4F0
F4F0
ECF0
C070
7CE0
7860
3FC0
0F00
ENDCHAR

STARTCHAR a134
ENCODING 186
SWIDTH 788 0
DWIDTH 13 0
BBX 12 12 0 0
BITMAP
0F00
3FC0
7060
70E0
F7F0
F0F0
FE70
E670
6660
70E0
3FC0
0F00
ENDCHAR

STARTCHAR a135
ENCODING 187
SWIDTH 788 0
DWIDTH 13 0
BBX 12 12 0 0
BITMAP
0F00
3FC0
70E0
6660
E7F0
E0F0
E670
E770
6660
70E0
3FC0
0F00
ENDCHAR

STARTCHAR a136
ENCODING 188
SWIDTH 788 0
DWIDTH 13 0
BBX 12 12 0 0
BITMAP
0F00
3FC0
7060
6060
EEF0
FEF0
FDF0
F9F0
79E0
79E0
3FC0
0F00
ENDCHAR

STARTCHAR a137
ENCODING 189
SWIDTH 788 0
DWIDTH 13 0
BBX 12 12 0 0
BITMAP
0F00
3FC0
70E0
6660
E670
F0F0
E070
E670
6660
70E0
3FC0
0F00
ENDCHAR

STARTCHAR a138
ENCODING 190
SWIDTH 788 0
DWIDTH 13 0
BBX 12 12 0 0
BITMAP
0F00
3FC0
70E0
6660
EE70
E670
F070
FE70
6660
70E0
3FC0
0F00
ENDCHAR

STARTCHAR a139
ENCODING 191
SWIDTH 788 0
DWIDTH 13 0
BBX 12 12 0 0
BITMAP
0F00
3FC0
6C60
4D60
E930
E930
E930
E930
6D60
4460
3FC0
0F00
ENDCHAR

STARTCHAR a140
ENCODING 192
SWIDTH 788 0
DWIDTH 13 0
BBX 12 12 0 0
BITMAP
0F00
30C0
4220
4E20
8210
8210
8210
8210
4220
4220
30C0
0F00
ENDCHAR

STARTCHAR a141
ENCODING 193
SWIDTH 788 0
DWIDTH 13 0
BBX 12 12 0 0
BITMAP
0F00
30C0
4620
4920
8910
8110
8210
8410
4820
4F20
30C0
0F00
ENDCHAR

STARTCHAR a142
ENCODING 194
SWIDTH 788 0
DWIDTH 13 0
BBX 12 12 0 0
BITMAP
0F00
30C0
4620
4920
8110
8610
8110
8910
4920
4620
30C0
0F00
ENDCHAR

STARTCHAR a143
ENCODING 195
SWIDTH 788 0
DWIDTH 13 0
BBX 12 12 0 0
BITMAP
0F00
30C0
4220
4620
8A10
8A10
9210
9F10
4220
4220
30C0
0F00
ENDCHAR

STARTCHAR a144
ENCODING 196
SWIDTH 788 0
DWIDTH 13 0
BBX 12 12 0 0
BITMAP
0F00
30C0
4F20
4820
8810
8E10
8910
8110
4920
4620
30C0
0F00
ENDCHAR

STARTCHAR a145
ENCODING 197
SWIDTH 788 0
DWIDTH 13 0
BBX 12 12 0 0
BITMAP
0F00
30C0
4620
4920
8810
8E10
8910
8910
4920
4620
30C0
0F00
ENDCHAR

STARTCHAR a146
ENCODING 198
SWIDTH 788 0
DWIDTH 13 0
BBX 12 12 0 0
BITMAP
0F00
30C0
4F20
4120
8210
8210
8410
8410
4420
4420
30C0
0F00
ENDCHAR

STARTCHAR a147
ENCODING 199
SWIDTH 788 0
DWIDTH 13 0
BBX 12 12 0 0
BITMAP
0F00
30C0
4620
4920
8910
8610
8910
8910
4920
4620
30C0
0F00
ENDCHAR

STARTCHAR a148
ENCODING 200
SWIDTH 788 0
DWIDTH 13 0
BBX 12 12 0 0
BITMAP
0F00
30C0
4620
4920
8910
8910
8710
8110
4920
4620
30C0
0F00
ENDCHAR

STARTCHAR a149
ENCODING 201
SWIDTH 788 0
DWIDTH 13 0
BBX 12 12 0 0
BITMAP
0F00
30C0
5320
74A0
9490
9490
9490
9490
54A0
5320
30C0
0F00
ENDCHAR

STARTCHAR a150
ENCODING 202
SWIDTH 788 0
DWIDTH 13 0
BBX 12 12 0 0
BITMAP
0F00
3FC0
79E0
61E0
F9F0
F9F0
F9F0
F9F0
79E0
79E0
3FC0
0F00
ENDCHAR

STARTCHAR a151
ENCODING 203
SWIDTH 788 0
DWIDTH 13 0
BBX 12 12 0 0
BITMAP
0F00
3FC0
70E0
6660
E670
FE70
FCF0
F1F0
67E0
6060
3FC0
0F00
ENDCHAR

STARTCHAR a152
ENCODING 204
SWIDTH 788 0
DWIDTH 13 0
BBX 12 12 0 0
BITMAP
0F00
3FC0
70E0
6660
FE70
F8F0
FE70
FE70
6660
70E0
3FC0
0F00
ENDCHAR

STARTCHAR a153
ENCODING 205
SWIDTH 788 0
DWIDTH 13 0
BBX 12 12 0 0
BITMAP
0F00
3FC0
7CE0
78E0
F0F0
F4F0
ECF0
C070
7CE0
7CE0
3FC0
0F00
ENDCHAR

STARTCHAR a154
ENCODING 206
SWIDTH 788 0
DWIDTH 13 0
BBX 12 12 0 0
BITMAP
0F00
3FC0
6060
67E0
E7F0
E0F0
EE70
FE70
6660
70E0
3FC0
0F00
ENDCHAR

STARTCHAR a155
ENCODING 207
SWIDTH 788 0
DWIDTH 13 0
BBX 12 12 0 0
BITMAP
0F00
3FC0
70E0
6660
EFF0
E0F0
E670
EF70
6660
70E0
3FC0
1F80
ENDCHAR

STARTCHAR a156
ENCODING 208
SWIDTH 788 0
DWIDTH 13 0
BBX 12 12 0 0
BITMAP
0F00
3FC0
6060
7E60
FCF0
F9F0
F9F0
F3F0
73E0
73E0
3FC0
0F00
ENDCHAR

STARTCHAR a157
ENCODING 209
SWIDTH 788 0
DWIDTH 13 0
BBX 12 12 0 0
BITMAP
0F00
3FC0
70E0
6660
E670
F0F0
E670
E670
6660
70E0
3FC0
0F00
ENDCHAR

STARTCHAR a158
ENCODING 210
SWIDTH 788 0
DWIDTH 13 0
BBX 12 12 0 0
BITMAP
1F80
3FC0
70E0
6660
EF70
E670
F070
FF70
6660
70E0
3FC0
0F00
ENDCHAR

STARTCHAR a159
ENCODING 211
SWIDTH 788 0
DWIDTH 13 0
BBX 12 12 0 0
BITMAP
0F00
3FC0
6C60
4D60
E930
E930
E930
E930
6D60
6C60
3FC0
0F00
ENDCHAR

STARTCHAR a160
ENCODING 212
SWIDTH 894 0
DWIDTH 15 0
BBX 13 10 0 1
BITMAP
0380
01C0
00E0
0070
FFF8
FFF8
0070
00E0
01C0
0380
ENDCHAR

STARTCHAR a161
ENCODING 213
SWIDTH 838 0
DWIDTH 14 0
BBX 13 7 0 2
BITMAP
0080
0040
0060
FFF8
0060
0040
0080
ENDCHAR

STARTCHAR a163
ENCODING 214
SWIDTH 1016 0
DWIDTH 17 0
BBX 16 7 0 2
BITMAP
0810
1008
300C
FFFF
300C
1008
0810
ENDCHAR

STARTCHAR a164
ENCODING 215
SWIDTH 458 0
DWIDTH 8 0
BBX 7 16 0 -3
BITMAP
10
10
38
7C
92
10
10
10
10
10
10
92
7C
38
10
10
ENDCHAR

STARTCHAR a196
ENCODING 216
SWIDTH 748 0
DWIDTH 12 0
BBX 10 10 1 1
BITMAP
4000
E000
7000
3900
1D00
0F80
0780
1F80
07C0
00C0
ENDCHAR

STARTCHAR a165
ENCODING 217
SWIDTH 924 0
DWIDTH 15 0
BBX 13 8 1 2
BITMAP
0100
01C0
00E0
FFF8
FFF8
00E0
01C0
0100
ENDCHAR

STARTCHAR a192
ENCODING 218
SWIDTH 748 0
DWIDTH 12 0
BBX 10 10 1 1
BITMAP
00C0
07C0
1F80
0780
0F80
1D00
3900
7000
E000
4000
ENDCHAR

STARTCHAR a166
ENCODING 219
SWIDTH 918 0
DWIDTH 15 0
BBX 14 7 0 2
BITMAP
0C00
0700
03E0
FFFC
03E0
0700
0C00
ENDCHAR

STARTCHAR a167
ENCODING 220
SWIDTH 927 0
DWIDTH 16 0
BBX 14 11 1 0
BITMAP
0180
03C0
01E0
00F0
7FF8
FFFC
7FF8
00F0
01E0
03C0
0180
ENDCHAR

STARTCHAR a168
ENCODING 221
SWIDTH 928 0
DWIDTH 15 0
BBX 13 7 1 2
BITMAP
0040
0060
0070
FFF8
0070
0060
0040
ENDCHAR

STARTCHAR a169
ENCODING 222
SWIDTH 928 0
DWIDTH 15 0
BBX 13 7 1 2
BITMAP
0040
0060
FFF0
FFF8
FFF0
0060
0040
ENDCHAR

STARTCHAR a170
ENCODING 223
SWIDTH 834 0
DWIDTH 14 0
BBX 13 7 0 2
BITMAP
0040
0060
AFF0
AFF8
AFF0
0060
0040
ENDCHAR

STARTCHAR a171
ENCODING 224
SWIDTH 873 0
DWIDTH 15 0
BBX 13 9 0 1
BITMAP
0040
0040
AFE0
AFF0
AFF8
AFF0
AFE0
0040
0040
ENDCHAR

STARTCHAR a172
ENCODING 225
SWIDTH 828 0
DWIDTH 14 0
BBX 13 9 0 1
BITMAP
0080
00C0
FFE0
FFF0
FFF8
FFF0
FFE0
00C0
0080
ENDCHAR

STARTCHAR a173
ENCODING 226
SWIDTH 924 0
DWIDTH 15 0
BBX 14 9 1 1
BITMAP
C000
7800
2700
10E0
0FFC
1FE0
3F00
7C00
E000
ENDCHAR

STARTCHAR a162
ENCODING 227
SWIDTH 924 0
DWIDTH 15 0
BBX 13 10 1 1
BITMAP
C000
7800
3E00
1FC0
0FF8
0878
11C0
2600
7800
C000
ENDCHAR

STARTCHAR a174
ENCODING 228
SWIDTH 917 0
DWIDTH 15 0
BBX 14 13 0 -1
BITMAP
8000
6000
7800
3E00
1FC0
1FF0
0FFC
1FF0
1FC0
3E00
7800
6000
8000
ENDCHAR

STARTCHAR a175
ENCODING 229
SWIDTH 930 0
DWIDTH 15 0
BBX 14 10 0 0
BITMAP
8000
8040
C060
FFF0
FFF8
7FFC
7FF8
1FF0
0060
0040
ENDCHAR

STARTCHAR a176
ENCODING 230
SWIDTH 931 0
DWIDTH 16 0
BBX 14 10 0 0
BITMAP
0040
0060
1FF0
7FF8
7FFC
FFF8
FFF0
C060
8040
8000
ENDCHAR

STARTCHAR a177
ENCODING 231
SWIDTH 463 0
DWIDTH 8 0
BBX 7 15 0 -2
BITMAP
20
20
F0
F0
F8
F8
FC
FE
FC
F8
F8
F0
F0
20
20
ENDCHAR

STARTCHAR a178
ENCODING 232
SWIDTH 883 0
DWIDTH 14 0
BBX 13 11 0 0
BITMAP
0200
0200
FF00
FF80
FFE0
FFF8
FFE0
FF80
FF00
0200
0200
ENDCHAR

STARTCHAR a179
ENCODING 233
SWIDTH 836 0
DWIDTH 14 0
BBX 13 11 0 0
BITMAP
0300
0380
02C0
FE60
8030
8018
8030
FE60
02C0
0380
0300
ENDCHAR

STARTCHAR a193
ENCODING 234
SWIDTH 836 0
DWIDTH 14 0
BBX 13 11 0 0
BITMAP
0300
0380
0340
FF20
C010
C008
C010
FF20
0340
0380
0300
ENDCHAR

STARTCHAR a180
ENCODING 235
SWIDTH 867 0
DWIDTH 15 0
BBX 14 9 0 1
BITMAP
0020
1FD0
2008
4004
801C
FE7C
FFF0
03C0
0300
ENDCHAR

STARTCHAR a199
ENCODING 236
SWIDTH 867 0
DWIDTH 15 0
BBX 14 9 0 1
BITMAP
0300
03C0
FFF0
FE7C
801C
4004
2008
1FD0
0020
ENDCHAR

STARTCHAR a181
ENCODING 237
SWIDTH 696 0
DWIDTH 11 0
BBX 10 11 0 0
BITMAP
0800
0C00
FA00
8100
8080
80C0
8180
FB00
FE00
0C00
0800
ENDCHAR

STARTCHAR a200
ENCODING 238
SWIDTH 696 0
DWIDTH 11 0
BBX 9 10 0 1
BITMAP
0800
0C00
FE00
FB00
8180
8080
8100
FA00
0C00
0800
ENDCHAR

STARTCHAR a182
ENCODING 239
SWIDTH 874 0
DWIDTH 15 0
BBX 14 11 0 0
BITMAP
0080
00C0
FFA0
4010
2008
200C
4018
7FB0
FFE0
00C0
0080
ENDCHAR

STARTCHAR a201
ENCODING 241
SWIDTH 874 0
DWIDTH 14 0
BBX 13 10 0 1
BITMAP
0080
00C0
FFE0
FFB0
4018
2008
4010
FFA0
00C0
0080
ENDCHAR

STARTCHAR a183
ENCODING 242
SWIDTH 760 0
DWIDTH 12 0
BBX 11 12 0 0
BITMAP
3F00
7FC0
FDC0
00E0
0060
0020
0020
0060
00E0
FDC0
7FC0
3F00
ENDCHAR

STARTCHAR a184
ENCODING 243
SWIDTH 946 0
DWIDTH 16 0
BBX 15 7 0 2
BITMAP
FE08
5508
2A8C
1FFE
2A8C
5508
FE08
ENDCHAR

STARTCHAR a197
ENCODING 244
SWIDTH 771 0
DWIDTH 13 0
BBX 11 11 0 0
BITMAP
1000
1800
1C00
EE00
7600
3A00
1E00
0140
00C0
01E0
0060
ENDCHAR

STARTCHAR a185
ENCODING 245
SWIDTH 865 0
DWIDTH 14 0
BBX 13 5 0 3
BITMAP
FC20
7E30
03F8
7E30
FC20
ENDCHAR

STARTCHAR a194
ENCODING 246
SWIDTH 771 0
DWIDTH 13 0
BBX 11 11 0 0
BITMAP
0060
01E0
00C0
0140
1E00
3A00
7600
EE00
1C00
1800
1000
ENDCHAR

STARTCHAR a198
ENCODING 247
SWIDTH 888 0
DWIDTH 14 0
BBX 12 12 0 0
BITMAP
0800
0C00
0E00
0F00
FF00
7F00
3E10
1D30
00B0
0070
01F0
03F0
ENDCHAR

STARTCHAR a186
ENCODING 248
SWIDTH 967 0
DWIDTH 16 0
BBX 14 7 0 2
BITMAP
F860
7C70
3E38
1FFC
3E38
7C70
F860
ENDCHAR

STARTCHAR a195
ENCODING 249
SWIDTH 888 0
DWIDTH 14 0
BBX 12 12 0 0
BITMAP
03F0
01F0
0070
00B0
1D30
3E10
7F00
FF00
0F00
0E00
0C00
0800
ENDCHAR

STARTCHAR a187
ENCODING 250
SWIDTH 831 0
DWIDTH 14 0
BBX 13 8 0 2
BITMAP
0180
01C0
78E0
FFF8
FFF8
78E0
01C0
0180
ENDCHAR

STARTCHAR a188
ENCODING 251
SWIDTH 873 0
DWIDTH 14 0
BBX 13 9 0 1
BITMAP
0080
0180
71C0
FCE0
FFF8
FCE0
71C0
0180
0080
ENDCHAR

STARTCHAR a189
ENCODING 252
SWIDTH 927 0
DWIDTH 15 0
BBX 14 6 0 3
BITMAP
FC30
7E38
3FFC
3FFC
7E38
FC30
ENDCHAR

STARTCHAR a190
ENCODING 253
SWIDTH 970 0
DWIDTH 16 0
BBX 14 8 0 2
BITMAP
FC60
FE70
7F38
7FFC
7FFC
7F38
FE70
FC60
ENDCHAR

STARTCHAR a191
ENCODING 254
SWIDTH 918 0
DWIDTH 15 0
BBX 14 9 0 1
BITMAP
0240
0120
0090
FFC8
0004
FFC8
0090
0120
0240
ENDCHAR
ENDFONT
